name processed_emg_signals
nRows=64
nColumns=7
 
endheader
time	RGLTMED	RRF	RADDLONG	RST	RTA	RGM
1.74	0.8571398102598093	0.2085791524259292	0.3570265783554845	0.2249694193613947	0.0765634120271991	0.2782186670106988
1.741	0.8604496919761541	0.2067717420160275	0.354883449582428	0.2252060209826695	0.0771791429391018	0.2804767668723888
1.742	0.8637171986709132	0.2049227915997774	0.3526790978648495	0.2254540213359283	0.0777674350238838	0.2827482021239204
1.743	0.8669373842663574	0.2030341407167545	0.3504160919638744	0.2257124105075325	0.0783279188783011	0.2850282306237027
1.744	0.8701053645813389	0.201107702390746	0.3480970661026905	0.2259801595572253	0.0788602668259487	0.2873121425783829
1.745	0.8732163278287394	0.1991454618608233	0.3457247157461401	0.2262562220378128	0.0793641923027616	0.2895952657005536
1.746	0.8762655448023158	0.1971494752114178	0.3433017933393601	0.226539535594871	0.0798394492198466	0.2918729703840577
1.747	0.8792483787233499	0.1951218679007893	0.3408311040182227	0.2268290236433994	0.0802858313053082	0.2941406748943053
1.748	0.8821602947190079	0.1930648331875546	0.3383155013033324	0.2271235971181927	0.0807031714267099	0.296393850570018
1.749	0.8849968689055328	0.1909806304552397	0.3357578827885372	0.227422156294183	0.0810913408956574	0.2986280270319633
1.75	0.8877537970513166	0.1888715834350653	0.3331611858340271	0.2277235926726341	0.0814502487559413	0.3008387973932745
1.7510000000000001	0.8904269027956171	0.1867400783275158	0.3305283832732599	0.2280267909287423	0.0817798410565589	0.3030218234651641
1.752	0.893012145400633	0.184588561823643	0.3278624791422296	0.2283306309156792	0.0820801001110031	0.305172840951136
1.7530000000000001	0.8955056270156068	0.1824195390276302	0.3251665044389047	0.2286339897197556	0.0823510437441259	0.3072876646223137
1.754	0.8979035994333621	0.1802355712828138	0.3224435129198831	0.228935743760981	0.0825927245279475	0.3093621934659536
1.7550000000000001	0.9002024703207021	0.1780392739039447	0.3196965769406207	0.2292347709327504	0.0828052290077047	0.3113924157987021
1.756	0.9023988089051364	0.175833313818928	0.3169287833448227	0.2295299527740178	0.082988676919349	0.3133744143356835
1.7570000000000001	0.9044893511008892	0.1736204071237307	0.3141432294081118	0.2298201766668726	0.0831432203995798	0.3153043712058302
1.758	0.906471004058778	0.1714033165544506	0.3113430188406003	0.2301043380521808	0.0832690431892756	0.3171785729034422
1.7590000000000001	0.9083408501284254	0.1691848488810457	0.3085312578527304	0.2303813426558001	0.0833663598309982	0.3189934151654374
1.76	0.9100961502275952	0.1669678522276632	0.3057110512885749	0.2306501087179217	0.0834354148609684	0.3207454077634311
1.7610000000000001	0.911734346621842	0.1647552133250316	0.3028854988306156	0.2309095692180956	0.0834764819957447	0.3224311791993098
1.762	0.9132530651251716	0.1625498547009626	0.3000576912797732	0.231158674088459	0.0834898633136604	0.3240474812925557
1.7630000000000001	0.9146501167386596	0.1603547318153521	0.2972307069140491	0.2313963924073853	0.0834758884309924	0.3255911936470071
1.764	0.9159234987480372	0.1581728301464432	0.2944076079290008	0.2316217145655358	0.08343491367271	0.3270593279842134
1.7650000000000001	0.9170713953048292	0.1560071622351462	0.2915914369629495	0.2318336543957757	0.0833673212375311	0.328449032330063
1.766	0.9180921775177284	0.1538607646942255	0.2887852137099881	0.2320312512582521	0.0832735183569383	0.3297575950409418
1.7670000000000001	0.9189844030827924	0.1517366951889845	0.28599193162433	0.2322135720716868	0.0831539364476789	0.3309824486555505
1.768	0.9197468154815496	0.1496380293958458	0.2832145547198506	0.232379713281975	0.0830090302573274	0.3321211735584322
1.7690000000000001	0.9203783427766904	0.147567857944845	0.2804560144692168	0.2325288027595696	0.0828392770024588	0.3331715014413492
1.77	0.920878096033946	0.1455292833517744	0.2777192068072584	0.232660001617542	0.0826451754990509	0.3341313185485728
1.7710000000000001	0.921245367398322	0.1435254169453041	0.2750069892432661	0.2327725059430734	0.0824272452846726	0.3349986686919995
1.772	0.9214796278509186	0.1415593757940895	0.2723221780868556	0.2328655484356454	0.0821860257319193	0.3357717560214502
1.7730000000000001	0.921580524670728	0.1396342796384892	0.2696675457918022	0.2329383999457724	0.0819220751523941	0.336448947534827
1.774	0.9215478786238468	0.1377532478312191	0.267045818421703	0.2329903709081958	0.0816359698903845	0.3370287753118536
1.7750000000000001	0.9213816809002772	0.1359193962909176	0.2644596732408346	0.2330208126633091	0.0813283034052803	0.3375099384542273
1.776	0.9210820898166892	0.1341358344723347	0.2619117364327693	0.2330291186602496	0.0809996853417711	0.337891304714433
1.7770000000000001	0.9206494273018402	0.1324056623565901	0.2594045809489066	0.2330147255352633	0.0806507405869027	0.338171911795332
1.778	0.9200841751795364	0.1307319674645825	0.2569407244886642	0.2329771140588948	0.0802821083132499	0.3383509683031626
1.7790000000000001	0.9193869712633052	0.1291178218963858	0.2545226276127974	0.2329158099462341	0.0798944410075806	0.3384278543378867
1.78	0.9185586052758768	0.1275662793991567	0.2521526919911698	0.2328303845249991	0.0794884034846489	0.3384021217071309
1.7810000000000001	0.9176000146070016	0.1260803724657029	0.2498332587863473	0.2327204552574271	0.0790646718860124	0.3382734937534915
1.782	0.9165122799232422	0.1246631094656093	0.247566607174154	0.2325856861134097	0.0786239326643431	0.3380418647893914
1.7830000000000001	0.9152966206451876	0.12331747181041	0.2453549530020552	0.2324257877945275	0.0781668815542496	0.3377072991386559
1.784	0.9139543903095316	0.1220464111540226	0.2432004475857385	0.2322405178109616	0.077694222531288	0.3372700297884803
1.7850000000000001	0.9124870718354704	0.1208528466293906	0.2411051766435281	0.232029680415625	0.0772066667613594	0.3367304566591374
1.786	0.9108962727156196	0.1197396621219335	0.2390711593677651	0.231793126401685	0.0767049315430039	0.3360891445014313
1.7870000000000001	0.909183720151402	0.1187097035802126	0.2371003476314149	0.2315307527708796	0.0761897392453232	0.3353468204340461
1.788	0.9073512561507436	0.1177657763639201	0.2351946253276928	0.2312425022809971	0.0756618162442842	0.3345043711345731
1.7890000000000001	0.9054008326043586	0.1169106426290699	0.2333558078399165	0.230928362881206	0.0751218918602155	0.3335628396992779
1.79	0.90333450635481	0.1161470187499559	0.2315856416381129	0.2305883670441637	0.0745706972991974	0.3325234221877271
1.7910000000000001	0.9011544342716424	0.1154775727771505	0.2298858039984737	0.2302225910035898	0.0740089646008854	0.3313874638690649
1.792	0.8988628683450404	0.1149049219304651	0.2282579028410865	0.2298311539061595	0.0734374255950569	0.3301564551869559
1.793	0.8964621508109828	0.1144316301256335	0.2267034766809585	0.2294142168863134	0.0728568108690202	0.3288320274601459
1.794	0.8939547093209069	0.1140602055334071	0.2252239946867025	0.228971982072694	0.0722678487478115	0.3274159483354188
1.795	0.891343052169971	0.1137930981698016	0.2238208568410669	0.2285046915343899	0.0716712642891157	0.3259101170096313
1.796	0.8886297635980404	0.1136326975164987	0.2224953941965211	0.2280126261750041	0.0710677782947667	0.3243165592372578
1.797	0.8858174991778718	0.1135813301705892	0.2212488692188053	0.2274961045821297	0.0704581063407632	0.3226374221395601
1.798	0.8829089813048229	0.11364125752327	0.2200824762106678	0.226955481839523	0.0698429578276765	0.3208749688311516
1.799	0.8799069948027795	0.1138146734672898	0.218997341807714	0.2263911483089712	0.0692230350533147	0.3190315728795146
1.8	0.8768143826608656	0.1141037021331741	0.2179945255381957	0.2258035283883085	0.068599032309355	0.3171097126126835
1.801	0.8736340419157896	0.1145103956542724	0.2170750204388438	0.2251930792516582	0.0679716350035181	0.3151119652901522
1.802	0.870368919693488	0.1150367319606357	0.2162397537192811	0.224560289577567	0.067341518808686	0.3130410011519509
1.803	0.8670220094218345	0.1156846126015562	0.2154895874682071	0.223905678270306	0.0667093488401485	0.3108995773608942
